<svg width="75" height="75" viewBox="0 0 75 75" fill="none" xmlns="http://www.w3.org/2000/svg">
<path d="M17.5 62.4219C14.9479 62.4219 12.7734 61.5234 10.9766 59.7266C9.17969 57.9297 8.28125 55.7552 8.28125 53.2031H3.125V17.1875C3.125 15.9375 3.59375 14.8437 4.53125 13.9062C5.46875 12.9687 6.5625 12.5 7.8125 12.5H53.0469V25.5469H61.25L71.875 39.6875V53.2031H66.3281C66.3281 55.7552 65.4297 57.9297 63.6328 59.7266C61.8359 61.5234 59.6615 62.4219 57.1094 62.4219C54.5573 62.4219 52.3828 61.5234 50.5859 59.7266C48.7891 57.9297 47.8906 55.7552 47.8906 53.2031H26.7188C26.7188 55.7552 25.8203 57.9297 24.0234 59.7266C22.2266 61.5234 20.0521 62.4219 17.5 62.4219ZM17.5 57.7344C18.75 57.7344 19.8177 57.2917 20.7031 56.4063C21.5885 55.5208 22.0312 54.4531 22.0312 53.2031C22.0312 51.9531 21.5885 50.8854 20.7031 50C19.8177 49.1146 18.75 48.6719 17.5 48.6719C16.25 48.6719 15.1823 49.1146 14.2969 50C13.4115 50.8854 12.9688 51.9531 12.9688 53.2031C12.9688 54.4531 13.4115 55.5208 14.2969 56.4063C15.1823 57.2917 16.25 57.7344 17.5 57.7344ZM7.8125 48.5156H9.53125C10.4167 47.1094 11.5365 45.9896 12.8906 45.1563C14.2448 44.3229 15.7552 43.9063 17.4219 43.9063C19.0885 43.9063 20.612 44.3359 21.9922 45.1953C23.3724 46.0547 24.5052 47.1615 25.3906 48.5156H48.3594V17.1875H7.8125V48.5156ZM57.1094 57.7344C58.3594 57.7344 59.4271 57.2917 60.3125 56.4063C61.1979 55.5208 61.6406 54.4531 61.6406 53.2031C61.6406 51.9531 61.1979 50.8854 60.3125 50C59.4271 49.1146 58.3594 48.6719 57.1094 48.6719C55.8594 48.6719 54.7917 49.1146 53.9062 50C53.0208 50.8854 52.5781 51.9531 52.5781 53.2031C52.5781 54.4531 53.0208 55.5208 53.9062 56.4063C54.7917 57.2917 55.8594 57.7344 57.1094 57.7344ZM53.0469 41.7969H67.5781L58.9062 30.2344H53.0469V41.7969Z" fill="#EB704E"/>
</svg>
