<svg width="75" height="75" viewBox="0 0 75 75" fill="none" xmlns="http://www.w3.org/2000/svg">
<path d="M22.4219 68.6719C20.8594 68.6719 19.5313 68.125 18.4375 67.0313C17.3438 65.9375 16.7969 64.6094 16.7969 63.0469C16.7969 61.4844 17.3438 60.1563 18.4375 59.0625C19.5313 57.9688 20.8594 57.4219 22.4219 57.4219C23.9844 57.4219 25.3125 57.9688 26.4062 59.0625C27.5 60.1563 28.0469 61.4844 28.0469 63.0469C28.0469 64.6094 27.5 65.9375 26.4062 67.0313C25.3125 68.125 23.9844 68.6719 22.4219 68.6719ZM53.6719 68.6719C52.1094 68.6719 50.7813 68.125 49.6875 67.0313C48.5938 65.9375 48.0469 64.6094 48.0469 63.0469C48.0469 61.4844 48.5938 60.1563 49.6875 59.0625C50.7813 57.9688 52.1094 57.4219 53.6719 57.4219C55.2344 57.4219 56.5625 57.9688 57.6563 59.0625C58.75 60.1563 59.2969 61.4844 59.2969 63.0469C59.2969 64.6094 58.75 65.9375 57.6563 67.0313C56.5625 68.125 55.2344 68.6719 53.6719 68.6719ZM18.3594 17.1094L26.9531 34.9219H49.4531L59.2188 17.1094H18.3594ZM16.0156 12.4219H62.0313C63.2292 12.4219 64.1406 12.9688 64.7656 14.0625C65.3906 15.1563 65.3906 16.25 64.7656 17.3438L54.2188 36.3281C53.6458 37.3177 52.9037 38.112 51.9922 38.7109C51.0807 39.3099 50.0781 39.6094 48.9844 39.6094H25.3125L20.9375 47.7344H59.2969V52.4219H21.6406C19.4531 52.4219 17.8776 51.6927 16.9141 50.2344C15.9505 48.776 15.9635 47.1354 16.9531 45.3125L21.9531 36.0938L10.0781 10.9375H3.98438V6.25H13.125L16.0156 12.4219ZM26.9531 34.9219H49.4531H26.9531Z" fill="#EB704E"/>
</svg>
