<svg width="75" height="75" viewBox="0 0 75 75" fill="none" xmlns="http://www.w3.org/2000/svg">
<path d="M65.625 34.4531V60.9375C65.625 62.1875 65.1563 63.2812 64.2188 64.2187C63.2813 65.1562 62.1875 65.625 60.9375 65.625H13.9844C12.7344 65.625 11.6406 65.1562 10.7031 64.2187C9.76563 63.2812 9.29688 62.1875 9.29688 60.9375V34.4531C7.83854 33.2031 6.875 31.6667 6.40625 29.8438C5.9375 28.0208 5.98958 26.1979 6.5625 24.375L9.92188 13.8281C10.3385 12.4219 11.0677 11.3281 12.1094 10.5469C13.151 9.76562 14.349 9.375 15.7031 9.375H58.9063C60.3646 9.375 61.6406 9.77865 62.7344 10.5859C63.8281 11.3932 64.5833 12.474 65 13.8281L68.4375 24.375C69.0104 26.1979 69.0495 28.0208 68.5547 29.8438C68.0599 31.6667 67.0833 33.2031 65.625 34.4531ZM44.5313 32.0312C46.0417 32.0312 47.3177 31.5365 48.3594 30.5469C49.401 29.5573 49.8177 28.3594 49.6094 26.9531L47.6563 14.0625H39.8438V26.9531C39.8438 28.3073 40.2865 29.4922 41.1719 30.5078C42.0573 31.5234 43.1771 32.0312 44.5313 32.0312ZM29.9219 32.0312C31.3802 32.0312 32.6172 31.5365 33.6328 30.5469C34.6484 29.5573 35.1563 28.3594 35.1563 26.9531V14.0625H27.3438L25.3906 26.9531C25.1823 28.3073 25.5469 29.4922 26.4844 30.5078C27.4219 31.5234 28.5677 32.0312 29.9219 32.0312ZM15.7031 32.0312C16.9531 32.0312 18.0339 31.6016 18.9453 30.7422C19.8568 29.8828 20.3906 28.8281 20.5469 27.5781L22.5781 14.0625H14.7656L11.1719 25.4687C10.651 27.0833 10.8594 28.5807 11.7969 29.9609C12.7344 31.3411 14.0365 32.0312 15.7031 32.0312ZM59.2188 32.0312C60.8854 32.0312 62.2005 31.3542 63.1641 30C64.1276 28.6458 64.349 27.1354 63.8281 25.4687L60.2344 14.0625H52.4219L54.4531 27.5781C54.6094 28.8281 55.1432 29.8828 56.0547 30.7422C56.9662 31.6016 58.0208 32.0312 59.2188 32.0312ZM13.9844 60.9375H60.9375V36.6406C60.9896 36.6927 60.8203 36.7188 60.4297 36.7188H59.2188C57.9167 36.7188 56.6797 36.4453 55.5078 35.8984C54.3359 35.3516 53.1771 34.5052 52.0313 33.3594C51.1979 34.401 50.1563 35.2214 48.9063 35.8203C47.6563 36.4193 46.276 36.7188 44.7656 36.7188C43.2031 36.7188 41.862 36.4974 40.7422 36.0547C39.6224 35.612 38.5417 34.8698 37.5 33.8281C36.7188 34.7656 35.7292 35.4818 34.5313 35.9766C33.3333 36.4714 31.9792 36.7188 30.4688 36.7188C28.8542 36.7188 27.4219 36.4323 26.1719 35.8594C24.9219 35.2865 23.8542 34.4531 22.9688 33.3594C21.7188 34.4531 20.4948 35.2865 19.2969 35.8594C18.099 36.4323 16.901 36.7188 15.7031 36.7188H14.6484C14.3099 36.7188 14.0885 36.6927 13.9844 36.6406V60.9375ZM60.9375 60.9375H13.9844H60.9375Z" fill="#EB704E"/>
</svg>
