<svg width="256" height="264" viewBox="0 0 256 264" fill="none" xmlns="http://www.w3.org/2000/svg">
<path d="M41.1866 263.598C16.5861 263.474 -3.34182 239.353 1.57828 212.047C3.46538 201.114 8.69786 191.034 16.5552 183.195C27.9426 171.609 39.2165 159.909 50.377 148.096C63.2497 134.52 63.2497 131.83 50.377 117.914C39.9489 106.905 29.397 96.1125 19.1236 85.0726C15.01 80.9825 11.2714 76.5322 7.95275 71.7752C2.41774 63.508 -0.354109 53.7009 0.0350494 43.7615C0.424208 33.8221 3.95436 24.2614 10.1188 16.4517C14.176 10.733 19.7473 6.25699 26.2079 3.52586C32.6684 0.79473 39.7626 -0.0835135 46.6947 0.989642C57.2236 1.90545 67.1603 6.25132 74.9775 13.3593C85.0343 22.9768 94.7198 32.9653 104.343 43.0466C106.661 45.6375 108.514 48.6086 109.821 51.829C110.831 53.9369 111.136 56.3139 110.691 58.6085C110.245 60.903 109.072 62.9932 107.345 64.5698C105.697 65.766 103.728 66.4407 101.693 66.5069C99.6573 66.573 97.6487 66.0275 95.9267 64.9409C92.4016 62.9674 89.1549 60.534 86.2721 57.7046C79.124 50.9013 72.3473 43.7269 65.2611 36.8617C62.0006 33.5165 58.4256 30.4926 54.5854 27.8319C51.601 25.4354 47.8606 24.1785 44.0337 24.2861C40.2067 24.3938 36.543 25.859 33.6982 28.4194C26.0241 34.2641 22.2489 43.294 25.0648 51.2415C26.5016 55.6326 28.7709 59.7063 31.7487 63.2401C43.9407 76.4447 56.5039 89.4947 69.1291 102.174C78.4123 111.451 85.251 111.451 94.627 102.607C100.135 97.4732 105.21 91.9378 110.439 86.5879C131.11 64.6007 151.626 42.459 172.327 20.6265C177.078 15.5441 182.393 11.0205 188.171 7.14356C193.774 3.49554 200.147 1.19348 206.789 0.417682C213.431 -0.358112 220.163 0.413427 226.457 2.67187C232.751 4.93031 238.437 8.61433 243.068 13.4354C247.7 18.2564 251.152 24.0836 253.153 30.4604C259.342 50.1282 255.288 66.7036 240.776 81.4854C214.845 108.08 189.409 135.139 163.416 161.888C158.662 166.948 153.25 171.348 147.325 174.969C141.133 178.905 133.856 180.785 126.531 180.341C119.207 179.897 112.21 177.151 106.54 172.495C102.115 168.815 98.1237 164.579 93.6677 160.806C84.9725 153.601 78.4433 153.291 70.6144 160.589C58.2368 172.062 46.2615 183.845 34.4718 195.812C31.0009 199.694 27.9993 203.97 25.529 208.553C24.0272 211.064 23.1407 213.893 22.9417 216.812C22.7428 219.73 23.237 222.654 24.384 225.345C30.9442 242.662 45.0856 244.611 57.8655 236.168C61.103 233.718 64.079 230.941 66.7464 227.881C76.0296 218.387 85.3128 208.769 94.7817 199.307C97.5754 196.363 100.597 193.643 103.817 191.174C110.483 185.929 118.677 182.999 127.159 182.826C135.64 182.653 143.947 185.247 150.821 190.215C162.383 198.982 172.919 209.024 182.23 220.15C187.339 226.427 193.247 232.01 199.806 236.756C212.183 244.796 225.52 240.034 231.492 226.86C232.871 224.287 233.593 221.414 233.593 218.495C233.593 215.576 232.871 212.703 231.492 210.13C228.968 205.588 225.926 201.354 222.426 197.513C216.237 190.679 209.306 184.401 202.869 177.722C199.555 174.419 196.542 170.828 193.865 166.991C192.39 164.796 191.763 162.142 192.098 159.52C192.434 156.898 193.71 154.487 195.69 152.735C197.343 151.05 199.564 150.041 201.921 149.903C204.278 149.766 206.602 150.511 208.439 151.993C224.809 166.712 242.137 180.814 251.544 201.471C256.449 212.136 256.924 224.309 252.864 235.323C248.803 246.336 240.54 255.292 229.883 260.227C225.143 262.453 220.007 263.714 214.774 263.937C209.541 264.16 204.316 263.341 199.404 261.526C191.664 258.933 184.66 254.522 178.98 248.662L150.45 220.582C147.541 217.737 144.756 214.738 141.6 212.202C137.842 208.936 133.054 207.096 128.075 207.006C123.095 206.915 118.243 208.58 114.369 211.707C110.741 214.6 107.366 217.797 104.282 221.263C95.4625 230.54 86.5816 239.817 78.1648 249.249C69.0672 259.763 57.587 263.815 41.1866 263.598ZM99.6399 131.799C104.033 140.196 110.86 147.073 119.227 151.529C122.488 153.479 126.269 154.382 130.059 154.116C133.85 153.851 137.468 152.43 140.424 150.044C143.17 147.929 145.737 145.592 148.098 143.055C172.668 117.78 197.186 92.4222 221.652 66.9819C224.936 63.7315 227.842 60.1215 230.317 56.2203C235.36 47.8708 233.411 38.5007 225.644 31.2026C218.527 24.4611 209.77 22.9149 201.879 28.1102C196.212 32.0917 190.965 36.6405 186.221 41.6859C160.27 68.0746 134.421 94.556 108.676 121.13C105.488 124.377 102.765 128.057 99.6399 131.799Z" fill="#282727"/>
</svg>
