<svg xmlns="http://www.w3.org/2000/svg" viewBox="0 0 82.73 85.37"><defs><style>.cls-1{opacity:0.1;}.cls-2{fill:#fff;}</style></defs><g id="Calque_2" data-name="Calque 2"><g id="Calque_1-2" data-name="Calque 1"><g class="cls-1"><path class="cls-2" d="M13.31,85.24C5.36,85.2-1.08,77.4.51,68.57a17.35,17.35,0,0,1,4.84-9.33q5.52-5.62,10.93-11.35c4.16-4.39,4.16-5.26,0-9.76C12.91,34.57,9.5,31.08,6.18,27.51a31.39,31.39,0,0,1-3.61-4.3,15.22,15.22,0,0,1,.7-17.89,12.2,12.2,0,0,1,11.82-5,15.59,15.59,0,0,1,9.14,4c3.25,3.11,6.38,6.34,9.49,9.6a9.77,9.77,0,0,1,1.77,2.84,3.52,3.52,0,0,1-.8,4.12A3.29,3.29,0,0,1,31,21a14.72,14.72,0,0,1-3.12-2.34c-2.31-2.2-4.5-4.52-6.79-6.74A23.54,23.54,0,0,0,17.64,9a5.21,5.21,0,0,0-6.75.19C8.41,11.08,7.19,14,8.1,16.57a11.64,11.64,0,0,0,2.16,3.88c3.94,4.27,8,8.49,12.08,12.59,3,3,5.21,3,8.24.14C32.36,31.52,34,29.73,35.69,28c6.68-7.11,13.31-14.27,20-21.33a29.54,29.54,0,0,1,5.12-4.36,14,14,0,0,1,21,7.54c2,6.36.69,11.72-4,16.5-8.38,8.6-16.6,17.35-25,26a25.09,25.09,0,0,1-5.2,4.23,11.25,11.25,0,0,1-13.18-.8C33,54.59,31.71,53.22,30.27,52c-2.81-2.33-4.92-2.43-7.45-.07-4,3.71-7.87,7.52-11.68,11.39a21.45,21.45,0,0,0-2.89,4.12,6,6,0,0,0-.37,5.43C10,78.47,14.57,79.1,18.7,76.37a19.09,19.09,0,0,0,2.87-2.68c3-3.07,6-6.18,9.06-9.24a25,25,0,0,1,2.92-2.63,12.61,12.61,0,0,1,15.19-.31,62.42,62.42,0,0,1,10.15,9.68,30,30,0,0,0,5.68,5.37c4,2.6,8.31,1.06,10.24-3.2a5.73,5.73,0,0,0,0-5.41,21.74,21.74,0,0,0-2.93-4.08c-2-2.21-4.24-4.24-6.32-6.4A25.49,25.49,0,0,1,62.65,54a3.53,3.53,0,0,1,.59-4.61,3.07,3.07,0,0,1,4.12-.24c5.29,4.76,10.89,9.32,13.93,16a14.34,14.34,0,0,1-7,19,12.76,12.76,0,0,1-9.85.42,16.48,16.48,0,0,1-6.6-4.16l-9.22-9.08c-.94-.92-1.84-1.89-2.86-2.71a6.85,6.85,0,0,0-8.8-.16,26.4,26.4,0,0,0-3.26,3.09c-2.85,3-5.72,6-8.44,9.05C22.32,84,18.61,85.31,13.31,85.24ZM32.2,42.62A15.22,15.22,0,0,0,38.53,49a6,6,0,0,0,6.85-.48,20.4,20.4,0,0,0,2.48-2.26Q59.77,34,71.63,21.66a19.87,19.87,0,0,0,2.8-3.48c1.63-2.7,1-5.73-1.51-8.09-2.3-2.18-5.13-2.68-7.68-1a32.93,32.93,0,0,0-5.06,4.39Q47.6,26.28,35.12,39.17C34.09,40.22,33.21,41.41,32.2,42.62Z"/></g></g></g></svg>